<svg width="28" height="28" viewBox="0 0 28 28" fill="none" xmlns="http://www.w3.org/2000/svg">
<path fill-rule="evenodd" clip-rule="evenodd" d="M13.9999 3.50002C11.4226 3.50002 9.33323 5.58936 9.33323 8.16669C9.33323 10.744 11.4226 12.8334 13.9999 12.8334C16.5772 12.8334 18.6666 10.744 18.6666 8.16669C18.6666 5.58936 16.5772 3.50002 13.9999 3.50002ZM18.4031 13.6086C19.9872 12.3253 20.9999 10.3642 20.9999 8.16669C20.9999 4.30069 17.8659 1.16669 13.9999 1.16669C10.1339 1.16669 6.9999 4.30069 6.9999 8.16669C6.9999 10.3642 8.01253 12.3253 9.59664 13.6086C5.06156 15.265 1.72338 19.4072 1.22969 24.3865C1.09041 25.7914 2.24577 26.8334 3.4999 26.8334H24.4999C25.7541 26.8334 26.9094 25.7914 26.7701 24.3865C26.2764 19.4072 22.9382 15.265 18.4031 13.6086ZM13.9999 15.1667C8.59548 15.1667 4.14349 19.2506 3.56388 24.5H24.436C23.8562 19.2506 19.4044 15.1667 13.9999 15.1667Z" fill="black"/>
</svg>
