<svg width="28" height="28" viewBox="0 0 28 28" fill="none" xmlns="http://www.w3.org/2000/svg">
<path fill-rule="evenodd" clip-rule="evenodd" d="M13.9999 3.49999C11.4226 3.49999 9.33323 5.58933 9.33323 8.16666C9.33323 10.744 11.4226 12.8333 13.9999 12.8333C16.5772 12.8333 18.6666 10.744 18.6666 8.16666C18.6666 5.58933 16.5772 3.49999 13.9999 3.49999ZM18.4031 13.6086C19.9872 12.3252 20.9999 10.3642 20.9999 8.16666C20.9999 4.30066 17.8659 1.16666 13.9999 1.16666C10.1339 1.16666 6.9999 4.30066 6.9999 8.16666C6.9999 10.3642 8.01253 12.3252 9.59664 13.6086C5.06156 15.265 1.72338 19.4071 1.22969 24.3865C1.09041 25.7914 2.24577 26.8333 3.4999 26.8333H24.4999C25.7541 26.8333 26.9094 25.7914 26.7701 24.3865C26.2764 19.4071 22.9382 15.265 18.4031 13.6086ZM13.9999 15.1667C8.59548 15.1667 4.14349 19.2506 3.56388 24.5H24.436C23.8562 19.2506 19.4044 15.1667 13.9999 15.1667Z" fill="#2A8955"/>
</svg>
