<svg width="11" height="11" viewBox="0 0 11 11" fill="none" xmlns="http://www.w3.org/2000/svg">
<path d="M2.19996 1.19002L5.49996 4.49002L8.79996 1.20002C8.93136 1.06632 9.11266 0.993819 9.29996 1.00002C9.67606 1.02432 9.97566 1.32392 9.99996 1.70002C10.0018 1.88062 9.92946 2.05412 9.79996 2.18002L6.48996 5.50002L9.79996 8.82002C9.92946 8.94592 10.0018 9.11942 9.99996 9.30002C9.97566 9.67612 9.67606 9.97572 9.29996 10C9.11266 10.0062 8.93136 9.93372 8.79996 9.80002L5.49996 6.51002L2.20996 9.80002C2.07856 9.93372 1.89726 10.0062 1.70996 10C1.32646 9.98002 1.01996 9.67352 0.999964 9.29002C0.998164 9.10942 1.07046 8.93592 1.19996 8.81002L4.50996 5.50002L1.18996 2.18002C1.06406 2.05242 0.995464 1.87922 0.999964 1.70002C1.02426 1.32392 1.32386 1.02432 1.69996 1.00002C1.88576 0.991219 2.06686 1.06002 2.19996 1.19002Z" fill="#43AA72"/>
</svg>
