<svg width="9" height="9" viewBox="0 0 9 9" fill="none" xmlns="http://www.w3.org/2000/svg">
<path d="M1.19996 0.190019L4.49996 3.49002L7.79996 0.200019C7.93136 0.0663191 8.11266 -0.00618095 8.29996 1.9048e-05C8.67606 0.024319 8.97566 0.323919 8.99996 0.700019C9.00176 0.880619 8.92946 1.05412 8.79996 1.18002L5.48996 4.50002L8.79996 7.82002C8.92946 7.94592 9.00176 8.11942 8.99996 8.30002C8.97566 8.67612 8.67606 8.97572 8.29996 9.00002C8.11266 9.00622 7.93136 8.93372 7.79996 8.80002L4.49996 5.51002L1.20996 8.80002C1.07856 8.93372 0.897264 9.00622 0.709964 9.00002C0.326464 8.98002 0.0199641 8.67352 -3.59144e-05 8.29002C-0.00183591 8.10942 0.0704641 7.93592 0.199964 7.81002L3.50996 4.50002L0.189964 1.18002C0.0640641 1.05242 -0.00453591 0.879219 -3.59144e-05 0.700019C0.0242641 0.323919 0.323864 0.024319 0.699964 1.9048e-05C0.885764 -0.00878095 1.06686 0.0600191 1.19996 0.190019Z" fill="#49C983"/>
</svg>
