<svg width="80" height="80" viewBox="0 0 80 80" fill="none" xmlns="http://www.w3.org/2000/svg">
<rect width="80" height="80" rx="12" fill="white"/>
<mask id="mask0_84_166" style="mask-type:luminance" maskUnits="userSpaceOnUse" x="10" y="10" width="61" height="61">
<path d="M70.6364 10H10V71H70.6364V10Z" fill="white"/>
</mask>
<g mask="url(#mask0_84_166)">
<path d="M39.6519 20.9072V37.303L53.7896 29.0917C50.566 24.5505 45.4734 21.4409 39.6519 20.9072ZM44.8167 31.835L41.3608 30.9035L42.6702 25.987L46.1262 26.9185L44.8167 31.835Z" fill="#5C434D"/>
<path d="M53.7228 52.0003L39.6519 43.8277V60.0927C45.4338 59.5627 50.496 56.4913 53.7228 52.0003ZM45.4233 54.4898L41.8455 50.8906L44.3754 48.3456L47.9531 51.9448L45.4233 54.4898Z" fill="#5C434D"/>
<path d="M36.0739 20.9072C30.1646 21.4489 25.0071 24.6455 21.7925 29.2988L36.0739 37.5935V20.9072ZM31.3505 32.6544L27.7728 29.0552L30.3025 26.5102L33.8804 30.1095L31.3505 32.6544Z" fill="#5C434D"/>
<path d="M39.6519 17.294C46.7944 17.8461 53.038 21.676 56.8981 27.2863L63.1947 23.6291C62.0811 21.9446 60.7932 20.3587 59.3388 18.8955C54.0259 13.5506 47.0914 10.4319 39.6519 10V17.294Z" fill="#5C434D"/>
<path d="M64.9444 54.3618C67.0953 50.1207 68.2349 45.3987 68.2349 40.4999C68.2349 35.6401 67.1141 30.9538 64.9963 26.7388L58.7025 30.3943C60.1738 33.4523 60.9995 36.8809 60.9995 40.4999C60.9995 44.1593 60.1545 47.6236 58.6523 50.7073L64.9444 54.3618Z" fill="#5C434D"/>
<path d="M36.074 60.0928V43.537L21.8569 51.7945C25.0759 56.3973 30.2041 59.5546 36.074 60.0928ZM30.9093 49.1649L34.3652 50.0966L33.0556 55.0132L29.5997 54.0814L30.9093 49.1649Z" fill="#5C434D"/>
<path d="M18.6847 27.4937C22.5326 21.77 28.8433 17.8528 36.074 17.294V10C31.2721 10.284 26.5997 11.7071 22.4624 14.1604C18.4126 16.5618 14.9628 19.8908 12.4019 23.8446L18.6847 27.4937Z" fill="#5C434D"/>
<path d="M56.8337 53.8072C52.9687 59.3665 46.7547 63.1572 39.6519 63.7062V71.0001C47.0913 70.5682 54.0259 67.4495 59.3389 62.1047C60.7661 60.6688 62.0335 59.1153 63.1328 57.4658L56.8337 53.8072Z" fill="#5C434D"/>
<path d="M36.074 63.706C28.8829 63.1502 22.6027 59.2722 18.7491 53.5996L12.4629 57.2507C15.0175 61.1628 18.4451 64.4576 22.4625 66.8397C26.5997 69.2929 31.2722 70.7159 36.074 71V63.706Z" fill="#5C434D"/>
<path d="M57.4214 40.4999C57.4214 37.5358 56.7652 34.7234 55.5932 32.2L41.1904 40.5654L55.5454 48.9029C56.7476 46.3533 57.4214 43.5045 57.4214 40.4999ZM48.7989 42.2257L47.873 38.7489L52.7603 37.4316L53.6862 40.9084L48.7989 42.2257Z" fill="#5C434D"/>
</g>
</svg>
