<svg width="297" height="87" viewBox="0 0 297 87" fill="none" xmlns="http://www.w3.org/2000/svg">
<g clip-path="url(#clip0_8_251)">
<path d="M42.5437 15.5562V38.9403L62.8283 27.2291C58.2031 20.7524 50.8963 16.3173 42.5437 15.5562ZM49.9542 31.1417L44.9956 29.8132L46.8744 22.8011L51.833 24.1296L49.9542 31.1417Z" fill="#5C434D"/>
<path d="M62.7324 59.902L42.5437 48.246V71.4436C50.8395 70.6878 58.1027 66.3072 62.7324 59.902ZM50.8245 63.4527L45.6911 58.3194L49.3209 54.6896L54.4542 59.8229L50.8245 63.4527Z" fill="#5C434D"/>
<path d="M37.4104 15.5562C28.9319 16.3288 21.532 20.8879 16.9197 27.5245L37.4104 39.3547V15.5562ZM30.6334 32.3104L25.5001 27.1771L29.1298 23.5473L34.2632 28.6807L30.6334 32.3104Z" fill="#5C434D"/>
<path d="M42.5437 10.4029C52.7917 11.1903 61.7499 16.6527 67.2883 24.6542L76.3226 19.4382C74.7248 17.0357 72.8769 14.7739 70.7902 12.687C63.1674 5.06404 53.2178 0.616001 42.5437 0V10.4029Z" fill="#5C434D"/>
<path d="M78.833 63.2701C81.919 57.2213 83.5541 50.4866 83.5541 43.4999C83.5541 36.5687 81.946 29.8849 78.9074 23.8733L69.8772 29.0869C71.9882 33.4483 73.1728 38.3383 73.1728 43.4999C73.1728 48.719 71.9605 53.6598 69.8052 58.0579L78.833 63.2701Z" fill="#5C434D"/>
<path d="M37.4106 71.4438V47.8314L17.0122 59.6085C21.6307 66.1732 28.9886 70.6763 37.4106 71.4438ZM30.0004 55.8581L34.9589 57.1869L33.0799 64.1991L28.1214 62.8702L30.0004 55.8581Z" fill="#5C434D"/>
<path d="M12.4605 24.9501C17.9814 16.7867 27.036 11.1999 37.4104 10.4029V0C30.5208 0.40502 23.8168 2.43474 17.8808 5.93363C12.0702 9.35859 7.12049 14.1066 3.44604 19.7456L12.4605 24.9501Z" fill="#5C434D"/>
<path d="M67.1961 62.4791C61.6507 70.408 52.735 75.8143 42.5439 76.5973V87.0002C53.2179 86.3842 63.1676 81.9361 70.7905 74.3133C72.8382 72.2654 74.6567 70.0497 76.2339 67.6971L67.1961 62.4791Z" fill="#5C434D"/>
<path d="M37.4105 76.5971C27.0928 75.8044 18.0821 70.2734 12.553 62.183L3.53369 67.3903C7.19907 72.9699 12.1168 77.669 17.8809 81.0664C23.8169 84.5653 30.5209 86.5948 37.4105 87V76.5971Z" fill="#5C434D"/>
<path d="M68.0394 43.4999C68.0394 39.2723 67.0979 35.2612 65.4164 31.6623L44.7515 43.5932L65.3478 55.4844C67.0726 51.8481 68.0394 47.7851 68.0394 43.4999ZM55.668 45.9612L54.3395 41.0025L61.3517 39.1237L62.6802 44.0824L55.668 45.9612Z" fill="#5C434D"/>
</g>
<path d="M129.963 25.5455V43H126.827V28.1705H119.19V43H116.054V25.5455H129.963ZM146.631 43H143.461V28.1875H140.563C139.779 28.1875 139.134 28.304 138.629 28.5369C138.129 28.7642 137.756 29.0994 137.512 29.5426C137.273 29.9801 137.154 30.5085 137.154 31.1278C137.154 31.7472 137.273 32.2699 137.512 32.696C137.751 33.1165 138.12 33.4375 138.62 33.6591C139.126 33.875 139.768 33.983 140.546 33.983H144.79V36.608H140.12C138.779 36.608 137.648 36.3864 136.728 35.9432C135.808 35.4943 135.109 34.8608 134.631 34.0426C134.16 33.2187 133.924 32.2472 133.924 31.1278C133.924 30.0142 134.157 29.0398 134.623 28.2045C135.094 27.3636 135.788 26.7102 136.702 26.2443C137.617 25.7784 138.742 25.5455 140.077 25.5455H146.631V43ZM137.606 35.0909H141.058L136.813 43H133.285L137.606 35.0909ZM149.29 28.196V25.5455H163.217V28.196H157.822V43H154.685V28.196H149.29ZM168.04 32.2869H172.472C173.808 32.2869 174.952 32.5057 175.907 32.9432C176.867 33.375 177.603 33.9858 178.114 34.7756C178.626 35.5653 178.881 36.4943 178.881 37.5625C178.881 38.6364 178.626 39.5824 178.114 40.4006C177.603 41.2131 176.867 41.8494 175.907 42.3097C174.952 42.7699 173.808 43 172.472 43H165.935V25.5455H169.106V40.4091H172.472C173.177 40.4091 173.773 40.2756 174.262 40.0085C174.751 39.7415 175.12 39.3892 175.37 38.9517C175.626 38.5142 175.754 38.0398 175.754 37.5284C175.754 36.7898 175.469 36.1619 174.901 35.6449C174.339 35.1222 173.529 34.8608 172.472 34.8608H168.04V32.2869ZM188.369 25.5455H191.48V40.375H196.866V25.5455H199.96V40.375H205.304V25.5455H208.398V43H188.369V25.5455ZM212.308 43V25.5455H223.66V28.196H215.469V32.9347H223.072V35.5852H215.469V40.3494H223.728V43H212.308ZM241.826 31.4347H238.638C238.548 30.9119 238.38 30.4489 238.136 30.0455C237.891 29.6364 237.587 29.2898 237.224 29.0057C236.86 28.7216 236.445 28.5085 235.979 28.3665C235.519 28.2188 235.022 28.1449 234.488 28.1449C233.539 28.1449 232.698 28.3835 231.965 28.8608C231.232 29.3324 230.658 30.0256 230.244 30.9403C229.829 31.8494 229.621 32.9602 229.621 34.2727C229.621 35.608 229.829 36.733 230.244 37.6477C230.664 38.5568 231.238 39.2443 231.965 39.7102C232.698 40.1705 233.536 40.4006 234.479 40.4006C235.002 40.4006 235.491 40.3324 235.945 40.196C236.406 40.054 236.817 39.8466 237.181 39.5739C237.55 39.3011 237.86 38.9659 238.11 38.5682C238.366 38.1705 238.542 37.7159 238.638 37.2045L241.826 37.2216C241.707 38.0511 241.448 38.8295 241.05 39.5568C240.658 40.2841 240.144 40.9261 239.508 41.483C238.871 42.0341 238.127 42.4659 237.275 42.7784C236.423 43.0852 235.477 43.2386 234.437 43.2386C232.903 43.2386 231.533 42.8835 230.329 42.1733C229.124 41.4631 228.175 40.4375 227.482 39.0966C226.789 37.7557 226.442 36.1477 226.442 34.2727C226.442 32.392 226.792 30.7841 227.491 29.4489C228.19 28.108 229.141 27.0824 230.346 26.3722C231.55 25.6619 232.914 25.3068 234.437 25.3068C235.408 25.3068 236.312 25.4432 237.147 25.7159C237.982 25.9886 238.727 26.3892 239.38 26.9176C240.033 27.4403 240.57 28.0824 240.991 28.8438C241.417 29.5994 241.695 30.4631 241.826 31.4347ZM243.955 28.196V25.5455H257.881V28.196H252.486V43H249.349V28.196H243.955ZM262.705 32.2869H267.136C268.472 32.2869 269.616 32.5057 270.571 32.9432C271.531 33.375 272.267 33.9858 272.778 34.7756C273.29 35.5653 273.545 36.4943 273.545 37.5625C273.545 38.6364 273.29 39.5824 272.778 40.4006C272.267 41.2131 271.531 41.8494 270.571 42.3097C269.616 42.7699 268.472 43 267.136 43H260.599V25.5455H263.77V40.4091H267.136C267.841 40.4091 268.438 40.2756 268.926 40.0085C269.415 39.7415 269.784 39.3892 270.034 38.9517C270.29 38.5142 270.418 38.0398 270.418 37.5284C270.418 36.7898 270.134 36.1619 269.565 35.6449C269.003 35.1222 268.193 34.8608 267.136 34.8608H262.705V32.2869ZM278.224 25.5455V43H275.054V25.5455H278.224ZM284.301 25.5455L288.145 31.9375H288.281L292.142 25.5455H295.747L290.369 34.2727L295.832 43H292.168L288.281 36.6506H288.145L284.259 43H280.611L286.125 34.2727L280.679 25.5455H284.301Z" fill="black"/>
<path d="M138.773 67.1818C137.985 67.1818 137.294 66.9943 136.699 66.6193C136.108 66.2443 135.646 65.7197 135.312 65.0455C134.983 64.3712 134.818 63.5833 134.818 62.6818C134.818 61.7727 134.983 60.9792 135.312 60.3011C135.646 59.6231 136.108 59.0966 136.699 58.7216C137.294 58.3466 137.985 58.1591 138.773 58.1591C139.561 58.1591 140.25 58.3466 140.841 58.7216C141.436 59.0966 141.898 59.6231 142.227 60.3011C142.561 60.9792 142.727 61.7727 142.727 62.6818C142.727 63.5833 142.561 64.3712 142.227 65.0455C141.898 65.7197 141.436 66.2443 140.841 66.6193C140.25 66.9943 139.561 67.1818 138.773 67.1818ZM138.773 65.9773C139.371 65.9773 139.864 65.8239 140.25 65.517C140.636 65.2102 140.922 64.8068 141.108 64.3068C141.294 63.8068 141.386 63.2652 141.386 62.6818C141.386 62.0985 141.294 61.5549 141.108 61.0511C140.922 60.5473 140.636 60.1402 140.25 59.8295C139.864 59.5189 139.371 59.3636 138.773 59.3636C138.174 59.3636 137.682 59.5189 137.295 59.8295C136.909 60.1402 136.623 60.5473 136.438 61.0511C136.252 61.5549 136.159 62.0985 136.159 62.6818C136.159 63.2652 136.252 63.8068 136.438 64.3068C136.623 64.8068 136.909 65.2102 137.295 65.517C137.682 65.8239 138.174 65.9773 138.773 65.9773ZM150.615 62.0227V63.2727H145.797V62.0227H150.615ZM146.115 58.2727V67H144.774V58.2727H146.115ZM151.638 58.2727V67H150.297V58.2727H151.638ZM153.314 67V65.75H153.632C153.893 65.75 154.111 65.6989 154.286 65.5966C154.46 65.4905 154.6 65.3068 154.706 65.0455C154.816 64.7803 154.899 64.4129 154.956 63.9432C155.017 63.4697 155.06 62.8674 155.087 62.1364L155.246 58.2727H161.064V67H159.723V59.5227H156.518L156.382 62.6364C156.352 63.3523 156.287 63.983 156.189 64.5284C156.094 65.0701 155.948 65.5246 155.751 65.892C155.558 66.2595 155.301 66.536 154.979 66.7216C154.657 66.9072 154.253 67 153.768 67H153.314ZM166.092 67.2045C165.539 67.2045 165.037 67.1004 164.587 66.892C164.136 66.6799 163.778 66.375 163.513 65.9773C163.248 65.5758 163.115 65.0909 163.115 64.5227C163.115 64.0227 163.214 63.6174 163.411 63.3068C163.607 62.9924 163.871 62.7462 164.2 62.5682C164.53 62.3902 164.893 62.2576 165.291 62.1705C165.693 62.0795 166.096 62.0076 166.501 61.9545C167.032 61.8864 167.462 61.8352 167.791 61.8011C168.125 61.7633 168.367 61.7008 168.518 61.6136C168.674 61.5265 168.751 61.375 168.751 61.1591V61.1136C168.751 60.553 168.598 60.1174 168.291 59.8068C167.988 59.4962 167.528 59.3409 166.911 59.3409C166.27 59.3409 165.768 59.4811 165.405 59.7614C165.041 60.0417 164.786 60.3409 164.638 60.6591L163.365 60.2045C163.592 59.6742 163.895 59.2614 164.274 58.9659C164.657 58.6667 165.073 58.4583 165.524 58.3409C165.979 58.2197 166.426 58.1591 166.865 58.1591C167.145 58.1591 167.467 58.1932 167.831 58.2614C168.198 58.3258 168.553 58.4602 168.893 58.6648C169.238 58.8693 169.524 59.178 169.751 59.5909C169.979 60.0038 170.092 60.5568 170.092 61.25V67H168.751V65.8182H168.683C168.592 66.0076 168.441 66.2102 168.229 66.4261C168.017 66.642 167.734 66.8258 167.382 66.9773C167.03 67.1288 166.6 67.2045 166.092 67.2045ZM166.297 66C166.827 66 167.274 65.8958 167.638 65.6875C168.005 65.4792 168.282 65.2102 168.467 64.8807C168.657 64.5511 168.751 64.2045 168.751 63.8409V62.6136C168.695 62.6818 168.57 62.7443 168.376 62.8011C168.187 62.8542 167.967 62.9015 167.717 62.9432C167.471 62.9811 167.231 63.0152 166.996 63.0455C166.765 63.072 166.577 63.0947 166.433 63.1136C166.085 63.1591 165.759 63.233 165.456 63.3352C165.157 63.4337 164.914 63.5833 164.729 63.7841C164.547 63.9811 164.456 64.25 164.456 64.5909C164.456 65.0568 164.628 65.4091 164.973 65.6477C165.321 65.8826 165.763 66 166.297 66ZM173.881 65.0227L178.085 58.2727H179.631V67H178.29V60.25L174.108 67H172.54V58.2727H173.881V65.0227ZM177.199 55.3636H178.449C178.449 55.9773 178.237 56.4792 177.812 56.8693C177.388 57.2595 176.813 57.4545 176.085 57.4545C175.369 57.4545 174.799 57.2595 174.375 56.8693C173.955 56.4792 173.744 55.9773 173.744 55.3636H174.994C174.994 55.6591 175.076 55.9186 175.239 56.142C175.405 56.3655 175.688 56.4773 176.085 56.4773C176.483 56.4773 176.767 56.3655 176.938 56.142C177.112 55.9186 177.199 55.6591 177.199 55.3636ZM187.928 62.0227V63.2727H183.109V62.0227H187.928ZM183.428 58.2727V67H182.087V58.2727H183.428ZM188.95 58.2727V67H187.609V58.2727H188.95ZM195.899 67V58.2727H202.763V67H201.422V59.5227H197.24V67H195.899ZM206.553 65.0227L210.757 58.2727H212.303V67H210.962V60.25L206.78 67H205.212V58.2727H206.553V65.0227ZM221.622 58.2727V65.75H222.849V69.8182H221.509V67H214.759V58.2727H216.099V65.75H220.281V58.2727H221.622ZM231.778 58.2727V65.75H233.006V69.8182H231.665V67H224.915V58.2727H226.256V65.75H230.438V58.2727H231.778ZM238.636 67.1818C237.795 67.1818 237.07 66.9962 236.46 66.625C235.854 66.25 235.386 65.7273 235.057 65.0568C234.731 64.3826 234.568 63.5985 234.568 62.7045C234.568 61.8106 234.731 61.0227 235.057 60.3409C235.386 59.6553 235.845 59.1212 236.432 58.7386C237.023 58.3523 237.712 58.1591 238.5 58.1591C238.955 58.1591 239.403 58.2348 239.847 58.3864C240.29 58.5379 240.693 58.7841 241.057 59.125C241.42 59.4621 241.71 59.9091 241.926 60.4659C242.142 61.0227 242.25 61.7083 242.25 62.5227V63.0909H235.523V61.9318H240.886C240.886 61.4394 240.788 61 240.591 60.6136C240.398 60.2273 240.121 59.9223 239.761 59.6989C239.405 59.4754 238.985 59.3636 238.5 59.3636C237.966 59.3636 237.504 59.4962 237.114 59.7614C236.727 60.0227 236.43 60.3636 236.222 60.7841C236.013 61.2045 235.909 61.6553 235.909 62.1364V62.9091C235.909 63.5682 236.023 64.1269 236.25 64.5852C236.481 65.0398 236.801 65.3864 237.21 65.625C237.619 65.8598 238.095 65.9773 238.636 65.9773C238.989 65.9773 239.307 65.928 239.591 65.8295C239.879 65.7273 240.127 65.5758 240.335 65.375C240.544 65.1705 240.705 64.9167 240.818 64.6136L242.114 64.9773C241.977 65.4167 241.748 65.803 241.426 66.1364C241.104 66.4659 240.706 66.7235 240.233 66.9091C239.759 67.0909 239.227 67.1818 238.636 67.1818ZM244.29 70.2727V58.2727H245.585V59.6591H245.744C245.843 59.5076 245.979 59.3144 246.153 59.0795C246.331 58.8409 246.585 58.6288 246.915 58.4432C247.248 58.2538 247.699 58.1591 248.267 58.1591C249.002 58.1591 249.65 58.3428 250.21 58.7102C250.771 59.0777 251.208 59.5985 251.523 60.2727C251.837 60.947 251.994 61.7424 251.994 62.6591C251.994 63.5833 251.837 64.3845 251.523 65.0625C251.208 65.7367 250.773 66.2595 250.216 66.6307C249.659 66.9981 249.017 67.1818 248.29 67.1818C247.729 67.1818 247.28 67.089 246.943 66.9034C246.606 66.714 246.347 66.5 246.165 66.2614C245.983 66.0189 245.843 65.8182 245.744 65.6591H245.631V70.2727H244.29ZM245.608 62.6364C245.608 63.2955 245.705 63.8769 245.898 64.3807C246.091 64.8807 246.373 65.2727 246.744 65.5568C247.116 65.8371 247.57 65.9773 248.108 65.9773C248.669 65.9773 249.136 65.8295 249.511 65.5341C249.89 65.2348 250.174 64.8333 250.364 64.3295C250.557 63.822 250.653 63.2576 250.653 62.6364C250.653 62.0227 250.559 61.4697 250.369 60.9773C250.184 60.4811 249.902 60.089 249.523 59.8011C249.148 59.5095 248.676 59.3636 248.108 59.3636C247.563 59.3636 247.104 59.5019 246.733 59.7784C246.362 60.0511 246.081 60.4337 245.892 60.9261C245.703 61.4148 245.608 61.9848 245.608 62.6364ZM255.381 65.0227L259.585 58.2727H261.131V67H259.79V60.25L255.608 67H254.04V58.2727H255.381V65.0227ZM268.837 67V59.5H266.518C265.996 59.5 265.585 59.6212 265.286 59.8636C264.986 60.1061 264.837 60.4394 264.837 60.8636C264.837 61.2803 264.971 61.608 265.24 61.8466C265.513 62.0852 265.886 62.2045 266.359 62.2045H269.178V63.4545H266.359C265.768 63.4545 265.259 63.3504 264.831 63.142C264.403 62.9337 264.073 62.6364 263.842 62.25C263.611 61.8598 263.496 61.3977 263.496 60.8636C263.496 60.3258 263.617 59.8636 263.859 59.4773C264.102 59.0909 264.448 58.7936 264.899 58.5852C265.354 58.3769 265.893 58.2727 266.518 58.2727H270.109V67H268.837ZM263.018 67L265.496 62.6591H266.95L264.473 67H263.018Z" fill="black"/>
<defs>
<clipPath id="clip0_8_251">
<rect width="87" height="87" fill="white"/>
</clipPath>
</defs>
</svg>
