<svg width="97" height="18" viewBox="0 0 97 18" fill="none" xmlns="http://www.w3.org/2000/svg">
<path d="M12.4964 5.32599H10.1058C10.0376 4.93395 9.91193 4.58665 9.72869 4.28409C9.54545 3.97727 9.31747 3.71733 9.04474 3.50426C8.77202 3.29119 8.46094 3.13139 8.11151 3.02486C7.76634 2.91406 7.39347 2.85866 6.9929 2.85866C6.28125 2.85866 5.65057 3.03764 5.10085 3.3956C4.55114 3.74929 4.12074 4.26918 3.80966 4.95526C3.49858 5.63707 3.34304 6.47017 3.34304 7.45455C3.34304 8.45597 3.49858 9.29972 3.80966 9.9858C4.125 10.6676 4.5554 11.1832 5.10085 11.5327C5.65057 11.8778 6.27912 12.0504 6.98651 12.0504C7.37855 12.0504 7.74503 11.9993 8.08594 11.897C8.43111 11.7905 8.74006 11.6349 9.01278 11.4304C9.28977 11.2259 9.52202 10.9744 9.70952 10.6761C9.90128 10.3778 10.0334 10.0369 10.1058 9.65341L12.4964 9.66619C12.407 10.2884 12.2131 10.8722 11.9148 11.4176C11.6207 11.9631 11.2351 12.4446 10.7578 12.8622C10.2805 13.2756 9.7223 13.5994 9.0831 13.8338C8.44389 14.0639 7.73438 14.179 6.95455 14.179C5.80398 14.179 4.77699 13.9126 3.87358 13.38C2.97017 12.8473 2.25852 12.0781 1.73864 11.0724C1.21875 10.0668 0.958807 8.8608 0.958807 7.45455C0.958807 6.04403 1.22088 4.83807 1.74503 3.83665C2.26918 2.83097 2.98295 2.06179 3.88636 1.52912C4.78977 0.996448 5.8125 0.730113 6.95455 0.730113C7.68324 0.730113 8.3608 0.832386 8.98722 1.03693C9.61364 1.24148 10.1719 1.5419 10.6619 1.93821C11.152 2.33026 11.5547 2.81179 11.87 3.38281C12.1896 3.94957 12.3984 4.5973 12.4964 5.32599ZM18.8485 14.1918C17.8897 14.1918 17.0588 13.9808 16.3556 13.5589C15.6525 13.1371 15.1071 12.5469 14.7193 11.7884C14.3358 11.0298 14.144 10.1435 14.144 9.12926C14.144 8.11506 14.3358 7.22656 14.7193 6.46378C15.1071 5.70099 15.6525 5.10866 16.3556 4.68679C17.0588 4.26491 17.8897 4.05398 18.8485 4.05398C19.8074 4.05398 20.6383 4.26491 21.3414 4.68679C22.0446 5.10866 22.5879 5.70099 22.9714 6.46378C23.3592 7.22656 23.5531 8.11506 23.5531 9.12926C23.5531 10.1435 23.3592 11.0298 22.9714 11.7884C22.5879 12.5469 22.0446 13.1371 21.3414 13.5589C20.6383 13.9808 19.8074 14.1918 18.8485 14.1918ZM18.8613 12.3381C19.3812 12.3381 19.8159 12.1953 20.1653 11.9098C20.5147 11.62 20.7747 11.2322 20.9451 10.7464C21.1199 10.2607 21.2072 9.71946 21.2072 9.12287C21.2072 8.52202 21.1199 7.97869 20.9451 7.4929C20.7747 7.00284 20.5147 6.61293 20.1653 6.32315C19.8159 6.03338 19.3812 5.88849 18.8613 5.88849C18.3287 5.88849 17.8855 6.03338 17.5318 6.32315C17.1824 6.61293 16.9203 7.00284 16.7456 7.4929C16.5751 7.97869 16.4899 8.52202 16.4899 9.12287C16.4899 9.71946 16.5751 10.2607 16.7456 10.7464C16.9203 11.2322 17.1824 11.62 17.5318 11.9098C17.8855 12.1953 18.3287 12.3381 18.8613 12.3381ZM27.04 4.18182L29.0215 7.80611L31.035 4.18182H33.4831L30.5236 9.09091L33.5343 14H31.0989L29.0215 10.4652L26.9632 14H24.5087L27.5002 9.09091L24.5854 4.18182H27.04ZM35.2729 17.6818V4.18182H37.5485V5.8054H37.6827C37.802 5.56676 37.9703 5.31321 38.1877 5.04474C38.405 4.77202 38.699 4.53977 39.0698 4.34801C39.4405 4.15199 39.9135 4.05398 40.4888 4.05398C41.2473 4.05398 41.9313 4.24787 42.5407 4.63565C43.1543 5.01918 43.6401 5.58807 43.998 6.34233C44.3603 7.09233 44.5414 8.01278 44.5414 9.10369C44.5414 10.1818 44.3645 11.098 44.0108 11.8523C43.6571 12.6065 43.1756 13.1818 42.5662 13.5781C41.9569 13.9744 41.2665 14.1726 40.4952 14.1726C39.9327 14.1726 39.4661 14.0788 39.0953 13.8913C38.7246 13.7038 38.4263 13.478 38.2005 13.2138C37.9789 12.9453 37.8063 12.6918 37.6827 12.4531H37.5868V17.6818H35.2729ZM37.5421 9.09091C37.5421 9.72585 37.6316 10.282 37.8105 10.7592C37.9938 11.2365 38.2559 11.6094 38.5968 11.8778C38.9419 12.142 39.3596 12.2741 39.8496 12.2741C40.361 12.2741 40.7892 12.1378 41.1344 11.8651C41.4796 11.5881 41.7395 11.2109 41.9142 10.7337C42.0932 10.2521 42.1827 9.70455 42.1827 9.09091C42.1827 8.48153 42.0953 7.94034 41.9206 7.46733C41.7459 6.99432 41.486 6.62358 41.1408 6.35511C40.7956 6.08665 40.3652 5.95241 39.8496 5.95241C39.3553 5.95241 38.9355 6.08239 38.5904 6.34233C38.2452 6.60227 37.9831 6.96662 37.8042 7.43537C37.6294 7.90412 37.5421 8.45597 37.5421 9.09091ZM49.3482 14.1982C48.726 14.1982 48.1657 14.0874 47.6671 13.8658C47.1728 13.6399 46.7807 13.3075 46.4909 12.8686C46.2054 12.4297 46.0627 11.8885 46.0627 11.245C46.0627 10.6911 46.165 10.233 46.3695 9.87074C46.574 9.50852 46.8532 9.21875 47.2069 9.00142C47.5605 8.78409 47.959 8.62003 48.4022 8.50923C48.8496 8.39418 49.312 8.31108 49.7892 8.25994C50.3645 8.20028 50.8311 8.14702 51.1891 8.10014C51.5471 8.04901 51.807 7.9723 51.9689 7.87003C52.1351 7.76349 52.2182 7.59943 52.2182 7.37784V7.33949C52.2182 6.85795 52.0755 6.48509 51.79 6.22088C51.5044 5.95668 51.0932 5.82457 50.5563 5.82457C49.9895 5.82457 49.54 5.94815 49.2076 6.19531C48.8794 6.44247 48.6578 6.73437 48.5428 7.07102L46.3823 6.7642C46.5527 6.16761 46.834 5.66903 47.226 5.26847C47.6181 4.86364 48.0975 4.56108 48.6642 4.3608C49.231 4.15625 49.8574 4.05398 50.5435 4.05398C51.0165 4.05398 51.4874 4.10938 51.9561 4.22017C52.4249 4.33097 52.8532 4.5142 53.2409 4.76989C53.6287 5.02131 53.9398 5.36435 54.1742 5.79901C54.4128 6.23366 54.5321 6.77699 54.5321 7.42898V14H52.3077V12.6513H52.231C52.0904 12.924 51.8922 13.1797 51.6365 13.4183C51.3851 13.6527 51.0676 13.8423 50.6841 13.9872C50.3049 14.1278 49.8596 14.1982 49.3482 14.1982ZM49.949 12.4979C50.4135 12.4979 50.8162 12.4062 51.1571 12.223C51.498 12.0355 51.7601 11.7884 51.9434 11.4815C52.1309 11.1747 52.2246 10.8402 52.2246 10.478V9.32102C52.1522 9.38068 52.0286 9.43608 51.8539 9.48722C51.6834 9.53835 51.4917 9.5831 51.2786 9.62145C51.0655 9.6598 50.8546 9.69389 50.6458 9.72372C50.437 9.75355 50.2559 9.77912 50.1025 9.80043C49.7573 9.8473 49.4483 9.92401 49.1756 10.0305C48.9029 10.1371 48.6877 10.2862 48.53 10.478C48.3723 10.6655 48.2935 10.9084 48.2935 11.2067C48.2935 11.6328 48.449 11.9545 48.7601 12.1719C49.0712 12.3892 49.4675 12.4979 49.949 12.4979ZM63.6025 8.1321V10.0305H58.3738V8.1321H63.6025ZM59.0897 4.18182V14H56.8588V4.18182H59.0897ZM65.1174 4.18182V14H62.8929V4.18182H65.1174ZM69.6893 10.8679L73.6204 4.18182H75.9982V14H73.761V7.30753L69.8427 14H67.4585V4.18182H69.6893V10.8679ZM77.275 6.08026V4.18182H85.8659V6.08026H82.6891V14H80.4519V6.08026H77.275ZM89.2745 7.37784H92.1701C93.4229 7.37784 94.3924 7.68253 95.0785 8.2919C95.7646 8.90128 96.1097 9.70028 96.114 10.6889C96.1097 11.3324 95.9521 11.9034 95.641 12.402C95.3342 12.9006 94.8867 13.2926 94.2987 13.5781C93.7148 13.8594 93.0053 14 92.1701 14H87.7085V4.18182H89.9393V12.1016H92.1701C92.6729 12.1016 93.0863 11.9737 93.4102 11.718C93.734 11.4581 93.896 11.1257 93.896 10.7209C93.896 10.2947 93.734 9.94744 93.4102 9.67898C93.0863 9.41051 92.6729 9.27628 92.1701 9.27628H89.2745V7.37784Z" fill="#30915C"/>
</svg>
