<svg width="121" height="42" viewBox="0 0 121 42" fill="none" xmlns="http://www.w3.org/2000/svg">
<g filter="url(#filter0_d_30_415)">
<path d="M20.4964 13.326H18.1058C18.0376 12.9339 17.9119 12.5866 17.7287 12.2841C17.5455 11.9773 17.3175 11.7173 17.0447 11.5043C16.772 11.2912 16.4609 11.1314 16.1115 11.0249C15.7663 10.9141 15.3935 10.8587 14.9929 10.8587C14.2813 10.8587 13.6506 11.0376 13.1009 11.3956C12.5511 11.7493 12.1207 12.2692 11.8097 12.9553C11.4986 13.6371 11.343 14.4702 11.343 15.4545C11.343 16.456 11.4986 17.2997 11.8097 17.9858C12.125 18.6676 12.5554 19.1832 13.1009 19.5327C13.6506 19.8778 14.2791 20.0504 14.9865 20.0504C15.3786 20.0504 15.745 19.9993 16.0859 19.897C16.4311 19.7905 16.7401 19.6349 17.0128 19.4304C17.2898 19.2259 17.522 18.9744 17.7095 18.6761C17.9013 18.3778 18.0334 18.0369 18.1058 17.6534L20.4964 17.6662C20.407 18.2884 20.2131 18.8722 19.9148 19.4176C19.6207 19.9631 19.2351 20.4446 18.7578 20.8622C18.2805 21.2756 17.7223 21.5994 17.0831 21.8338C16.4439 22.0639 15.7344 22.179 14.9545 22.179C13.804 22.179 12.777 21.9126 11.8736 21.38C10.9702 20.8473 10.2585 20.0781 9.73864 19.0724C9.21875 18.0668 8.95881 16.8608 8.95881 15.4545C8.95881 14.044 9.22088 12.8381 9.74503 11.8366C10.2692 10.831 10.983 10.0618 11.8864 9.52912C12.7898 8.99645 13.8125 8.73011 14.9545 8.73011C15.6832 8.73011 16.3608 8.83239 16.9872 9.03693C17.6136 9.24148 18.1719 9.5419 18.6619 9.93821C19.152 10.3303 19.5547 10.8118 19.87 11.3828C20.1896 11.9496 20.3984 12.5973 20.4964 13.326ZM26.8485 22.1918C25.8897 22.1918 25.0588 21.9808 24.3556 21.5589C23.6525 21.1371 23.1071 20.5469 22.7193 19.7884C22.3358 19.0298 22.144 18.1435 22.144 17.1293C22.144 16.1151 22.3358 15.2266 22.7193 14.4638C23.1071 13.701 23.6525 13.1087 24.3556 12.6868C25.0588 12.2649 25.8897 12.054 26.8485 12.054C27.8074 12.054 28.6383 12.2649 29.3414 12.6868C30.0446 13.1087 30.5879 13.701 30.9714 14.4638C31.3592 15.2266 31.5531 16.1151 31.5531 17.1293C31.5531 18.1435 31.3592 19.0298 30.9714 19.7884C30.5879 20.5469 30.0446 21.1371 29.3414 21.5589C28.6383 21.9808 27.8074 22.1918 26.8485 22.1918ZM26.8613 20.3381C27.3812 20.3381 27.8159 20.1953 28.1653 19.9098C28.5147 19.62 28.7747 19.2322 28.9451 18.7464C29.1199 18.2607 29.2072 17.7195 29.2072 17.1229C29.2072 16.522 29.1199 15.9787 28.9451 15.4929C28.7747 15.0028 28.5147 14.6129 28.1653 14.3232C27.8159 14.0334 27.3812 13.8885 26.8613 13.8885C26.3287 13.8885 25.8855 14.0334 25.5318 14.3232C25.1824 14.6129 24.9203 15.0028 24.7456 15.4929C24.5751 15.9787 24.4899 16.522 24.4899 17.1229C24.4899 17.7195 24.5751 18.2607 24.7456 18.7464C24.9203 19.2322 25.1824 19.62 25.5318 19.9098C25.8855 20.1953 26.3287 20.3381 26.8613 20.3381ZM35.04 12.1818L37.0215 15.8061L39.035 12.1818H41.4831L38.5236 17.0909L41.5343 22H39.0989L37.0215 18.4652L34.9632 22H32.5087L35.5002 17.0909L32.5854 12.1818H35.04ZM43.2729 25.6818V12.1818H45.5485V13.8054H45.6827C45.802 13.5668 45.9703 13.3132 46.1877 13.0447C46.405 12.772 46.699 12.5398 47.0698 12.348C47.4405 12.152 47.9135 12.054 48.4888 12.054C49.2473 12.054 49.9313 12.2479 50.5407 12.6357C51.1543 13.0192 51.6401 13.5881 51.998 14.3423C52.3603 15.0923 52.5414 16.0128 52.5414 17.1037C52.5414 18.1818 52.3645 19.098 52.0108 19.8523C51.6571 20.6065 51.1756 21.1818 50.5662 21.5781C49.9569 21.9744 49.2665 22.1726 48.4952 22.1726C47.9327 22.1726 47.4661 22.0788 47.0953 21.8913C46.7246 21.7038 46.4263 21.478 46.2005 21.2138C45.9789 20.9453 45.8063 20.6918 45.6827 20.4531H45.5868V25.6818H43.2729ZM45.5421 17.0909C45.5421 17.7259 45.6316 18.282 45.8105 18.7592C45.9938 19.2365 46.2559 19.6094 46.5968 19.8778C46.9419 20.142 47.3596 20.2741 47.8496 20.2741C48.361 20.2741 48.7892 20.1378 49.1344 19.8651C49.4796 19.5881 49.7395 19.2109 49.9142 18.7337C50.0932 18.2521 50.1827 17.7045 50.1827 17.0909C50.1827 16.4815 50.0953 15.9403 49.9206 15.4673C49.7459 14.9943 49.486 14.6236 49.1408 14.3551C48.7956 14.0866 48.3652 13.9524 47.8496 13.9524C47.3553 13.9524 46.9355 14.0824 46.5904 14.3423C46.2452 14.6023 45.9831 14.9666 45.8042 15.4354C45.6294 15.9041 45.5421 16.456 45.5421 17.0909ZM57.3482 22.1982C56.726 22.1982 56.1657 22.0874 55.6671 21.8658C55.1728 21.6399 54.7807 21.3075 54.4909 20.8686C54.2054 20.4297 54.0627 19.8885 54.0627 19.245C54.0627 18.6911 54.165 18.233 54.3695 17.8707C54.574 17.5085 54.8532 17.2188 55.2069 17.0014C55.5605 16.7841 55.959 16.62 56.4022 16.5092C56.8496 16.3942 57.312 16.3111 57.7892 16.2599C58.3645 16.2003 58.8311 16.147 59.1891 16.1001C59.5471 16.049 59.807 15.9723 59.9689 15.87C60.1351 15.7635 60.2182 15.5994 60.2182 15.3778V15.3395C60.2182 14.858 60.0755 14.4851 59.79 14.2209C59.5044 13.9567 59.0932 13.8246 58.5563 13.8246C57.9895 13.8246 57.54 13.9482 57.2076 14.1953C56.8794 14.4425 56.6578 14.7344 56.5428 15.071L54.3823 14.7642C54.5527 14.1676 54.834 13.669 55.226 13.2685C55.6181 12.8636 56.0975 12.5611 56.6642 12.3608C57.231 12.1562 57.8574 12.054 58.5435 12.054C59.0165 12.054 59.4874 12.1094 59.9561 12.2202C60.4249 12.331 60.8532 12.5142 61.2409 12.7699C61.6287 13.0213 61.9398 13.3643 62.1742 13.799C62.4128 14.2337 62.5321 14.777 62.5321 15.429V22H60.3077V20.6513H60.231C60.0904 20.924 59.8922 21.1797 59.6365 21.4183C59.3851 21.6527 59.0676 21.8423 58.6841 21.9872C58.3049 22.1278 57.8596 22.1982 57.3482 22.1982ZM57.949 20.4979C58.4135 20.4979 58.8162 20.4062 59.1571 20.223C59.498 20.0355 59.7601 19.7884 59.9434 19.4815C60.1309 19.1747 60.2246 18.8402 60.2246 18.478V17.321C60.1522 17.3807 60.0286 17.4361 59.8539 17.4872C59.6834 17.5384 59.4917 17.5831 59.2786 17.6214C59.0655 17.6598 58.8546 17.6939 58.6458 17.7237C58.437 17.7536 58.2559 17.7791 58.1025 17.8004C57.7573 17.8473 57.4483 17.924 57.1756 18.0305C56.9029 18.1371 56.6877 18.2862 56.53 18.478C56.3723 18.6655 56.2935 18.9084 56.2935 19.2067C56.2935 19.6328 56.449 19.9545 56.7601 20.1719C57.0712 20.3892 57.4675 20.4979 57.949 20.4979ZM71.6025 16.1321V18.0305H66.3738V16.1321H71.6025ZM67.0897 12.1818V22H64.8588V12.1818H67.0897ZM73.1174 12.1818V22H70.8929V12.1818H73.1174ZM77.6893 18.8679L81.6204 12.1818H83.9982V22H81.761V15.3075L77.8427 22H75.4585V12.1818H77.6893V18.8679ZM85.275 14.0803V12.1818H93.8659V14.0803H90.6891V22H88.4519V14.0803H85.275ZM97.2745 15.3778H100.17C101.423 15.3778 102.392 15.6825 103.078 16.2919C103.765 16.9013 104.11 17.7003 104.114 18.6889C104.11 19.3324 103.952 19.9034 103.641 20.402C103.334 20.9006 102.887 21.2926 102.299 21.5781C101.715 21.8594 101.005 22 100.17 22H95.7085V12.1818H97.9393V20.1016H100.17C100.673 20.1016 101.086 19.9737 101.41 19.718C101.734 19.4581 101.896 19.1257 101.896 18.7209C101.896 18.2947 101.734 17.9474 101.41 17.679C101.086 17.4105 100.673 17.2763 100.17 17.2763H97.2745V15.3778Z" fill="#43AA72"/>
</g>
<defs>
<filter id="filter0_d_30_415" x="0.958801" y="0.730225" width="119.155" height="40.9517" filterUnits="userSpaceOnUse" color-interpolation-filters="sRGB">
<feFlood flood-opacity="0" result="BackgroundImageFix"/>
<feColorMatrix in="SourceAlpha" type="matrix" values="0 0 0 0 0 0 0 0 0 0 0 0 0 0 0 0 0 0 127 0" result="hardAlpha"/>
<feOffset dx="4" dy="4"/>
<feGaussianBlur stdDeviation="6"/>
<feComposite in2="hardAlpha" operator="out"/>
<feColorMatrix type="matrix" values="0 0 0 0 0.262745 0 0 0 0 0.666667 0 0 0 0 0.447059 0 0 0 0.35 0"/>
<feBlend mode="normal" in2="BackgroundImageFix" result="effect1_dropShadow_30_415"/>
<feBlend mode="normal" in="SourceGraphic" in2="effect1_dropShadow_30_415" result="shape"/>
</filter>
</defs>
</svg>
