<svg width="32" height="32" viewBox="0 0 32 32" fill="none" xmlns="http://www.w3.org/2000/svg">
<path d="M29 13H27H22.5L25.1 6.89998C25.4 6.29998 25.4 5.49998 25 4.99998C24.6 4.39998 24 4.09998 23.3 4.09998H16.2C15.1 4.09998 14 4.69998 13.5 5.79998L10.3 13H5H3C2.4 13 2 13.4 2 14C2 14.6 2.4 15 3 15H4.1L5.6 24.6C5.9 26.6 7.6 28 9.6 28H22.5C24.5 28 26.2 26.6 26.5 24.6L28 15H29C29.6 15 30 14.6 30 14C30 13.4 29.6 13 29 13ZM11.2 24C11.1 24 11.1 24 11 24C10.5 24 10.1 23.7 10 23.2L9 18.2C8.9 17.7 9.2 17.1 9.8 17C10.3 16.9 10.9 17.2 11 17.8L12 22.8C12.1 23.3 11.7 23.9 11.2 24ZM15.3 6.59998C15.5 6.19998 15.9 5.99998 16.2 5.99998H23.3L20.3 13H12.5L15.3 6.59998ZM17 23C17 23.6 16.6 24 16 24C15.4 24 15 23.6 15 23V18C15 17.4 15.4 17 16 17C16.6 17 17 17.4 17 18V23ZM22 23.2C21.9 23.7 21.5 24 21 24C20.9 24 20.9 24 20.8 24C20.3 23.9 19.9 23.4 20 22.8L21 17.8C21.1 17.3 21.6 16.9 22.2 17C22.7 17.1 23.1 17.6 23 18.2L22 23.2Z" fill="#5C434D"/>
</svg>
