<svg width="34" height="23" viewBox="0 0 34 23" fill="none" xmlns="http://www.w3.org/2000/svg">
<path fill-rule="evenodd" clip-rule="evenodd" d="M1.88889 22.6667H9.44444C10.4833 22.6667 11.3333 21.8167 11.3333 20.7778C11.3333 19.7389 10.4833 18.8889 9.44444 18.8889H1.88889C0.85 18.8889 0 19.7389 0 20.7778C0 21.8167 0.85 22.6667 1.88889 22.6667ZM0 1.88889C0 2.92778 0.85 3.77778 1.88889 3.77778H32.1111C33.15 3.77778 34 2.92778 34 1.88889C34 0.85 33.15 0 32.1111 0H1.88889C0.85 0 0 0.85 0 1.88889ZM1.88889 13.2222H20.7778C21.8167 13.2222 22.6667 12.3722 22.6667 11.3333C22.6667 10.2944 21.8167 9.44444 20.7778 9.44444H1.88889C0.85 9.44444 0 10.2944 0 11.3333C0 12.3722 0.85 13.2222 1.88889 13.2222Z" fill="#2A8955"/>
</svg>
